<svg width="32" height="48" viewBox="0 0 32 48" fill="none" xmlns="http://www.w3.org/2000/svg">
<path fill-rule="evenodd" clip-rule="evenodd" d="M23.3958 23.9766C23.3524 24.2501 23.2466 24.5105 23.0863 24.7381C22.926 24.9657 22.7154 25.1547 22.4703 25.291C21.9766 25.6044 21.5447 25.7612 21.1077 25.9179C20.177 26.2338 19.1974 26.5498 18.1613 26.9163C17.0687 27.2828 16.0891 27.6494 15.215 27.9148C14.1249 28.2813 13.0888 28.5973 12.1041 28.9638C11.3633 29.2755 10.6674 29.6817 10.0345 30.172C9.44584 30.6964 8.93212 31.2967 8.50734 31.9566C8.07027 32.6896 7.79518 33.635 7.79518 34.7371C7.79518 36.9438 8.34022 38.6222 9.43289 39.6712C10.523 40.7758 12.5438 41.2991 15.5389 41.2991C18.5932 41.2991 20.6654 40.7227 21.7607 39.5676C22.8482 38.4124 23.3932 36.7871 23.3932 34.6891V23.9766H23.3958ZM15.5415 0.721558C20.8891 0.721558 24.815 1.72001 27.3217 3.76746C29.831 5.76436 31.0856 8.33252 31.0856 11.3759V37.3103C31.0856 38.3593 30.8696 39.5145 30.4891 40.7733C30.1035 42.0371 29.3425 43.1898 28.1418 44.2363C26.9977 45.2903 25.4166 46.1826 23.3984 46.8651C21.3802 47.5476 18.7629 47.9141 15.5441 47.9141C12.3304 47.9141 9.70798 47.5476 7.69234 46.8651C5.6767 46.1826 4.09298 45.2903 2.9489 44.2363C1.8846 43.2933 1.07834 42.1025 0.604178 40.7733C0.218532 39.517 0 38.3618 0 37.3128V33.1674C0 30.9607 0.599036 28.9132 1.79968 27.1261C3.00032 25.291 4.68945 24.0322 6.8722 23.2435C7.96229 22.877 9.21692 22.5105 10.6335 22.0378C12.0527 21.5626 13.3588 21.0899 14.6699 20.6729C15.9811 20.2507 17.1252 19.8286 18.1048 19.4596C18.6959 19.227 19.2963 19.0179 19.9044 18.8327L20.8866 18.36C21.2722 18.1502 21.6501 17.8342 22.0332 17.4146C22.4137 16.9976 22.7402 16.5249 23.0153 15.9991C23.306 15.4298 23.4557 14.801 23.4524 14.164V12.483C23.4564 11.867 23.3249 11.2573 23.0667 10.6959C22.8508 10.064 22.4137 9.48769 21.8147 8.96445C21.2156 8.43869 20.3955 8.01909 19.416 7.70059C18.4338 7.38968 17.1278 7.23044 15.6521 7.23044C12.5977 7.23044 10.5795 7.81181 9.48945 9.01501C8.5639 10.0665 8.01885 11.3784 7.91087 12.847C7.91087 13.163 7.63835 13.3728 7.30927 13.3728L0.658168 13.479C0.500177 13.4796 0.348309 13.4189 0.235632 13.31C0.122956 13.2012 0.0585941 13.0529 0.0565613 12.8976V11.381C0.0565613 9.90729 0.331655 8.54232 0.930691 7.23044C1.5323 5.91602 2.46042 4.81646 3.71248 3.86857C4.96711 2.92573 6.60482 2.13961 8.56647 1.61384C10.4767 0.981913 12.8214 0.721558 15.5466 0.721558H15.5415Z" fill="#0A3871"/>
</svg>
